<svg version="1.1" xmlns="http://www.w3.org/2000/svg" width="64px" height="64px" viewBox="0 0 32 32">
<path fill="rgb(173, 119, 2)" d="M31.275 20.133c-0.4 0-0.725 0.325-0.725 0.725 0 1.060-0.862 1.922-1.922 1.922h-0.845v-3.843h0.845c0.4 0 0.725-0.325 0.725-0.725s-0.325-0.725-0.725-0.725h-2.559c-0.294 0-0.577-0.087-0.821-0.249-0.002-0.001-0.004-0.003-0.006-0.005-0.011-0.008-0.022-0.015-0.033-0.022-0.393-0.28-0.627-0.731-0.627-1.211 0-0.345-0.023-0.692-0.066-1.033-0.002-0.051-0.009-0.103-0.021-0.154-0.273-1.881-1.198-3.617-2.614-4.902-0.027-0.029-0.056-0.056-0.089-0.081-0-0-0-0-0-0-1.505-1.329-3.434-2.060-5.44-2.060h-0.35c-2.024 0-3.971 0.745-5.482 2.097-1.463 1.307-2.413 3.091-2.674 5.024-0 0.001-0 0.002-0 0.003-0 0.004-0.001 0.008-0.001 0.012-0.048 0.361-0.073 0.729-0.073 1.095 0 0.486-0.24 0.943-0.64 1.222-0.249 0.173-0.541 0.265-0.846 0.265h-2.912c-1.859-0-3.372 1.512-3.372 3.372s1.513 3.372 3.372 3.372h2.912c1.878 0 3.716-0.652 5.175-1.835 0-0 0.001-0.001 0.001-0.001 0.003-0.002 0.006-0.005 0.009-0.008 1.533-1.246 2.567-2.993 2.914-4.923 0-0.001 0-0.002 0.001-0.003 0.002-0.010 0.004-0.021 0.006-0.031 0.002-0.011 0.003-0.023 0.005-0.035 0-0.001 0-0.002 0.001-0.003 0.078-0.455 0.118-0.922 0.118-1.391 0-0.385 0.147-0.75 0.414-1.029 0.284-0.295 0.664-0.458 1.072-0.458h0.35c0.409 0 0.79 0.163 1.074 0.46 0.266 0.278 0.413 0.643 0.413 1.027 0 0.479 0.042 0.959 0.125 1.428 0.342 1.95 1.384 3.715 2.934 4.97 1.459 1.182 3.296 1.832 5.171 1.832h2.559c1.859 0 3.372-1.513 3.372-3.372-0-0.401-0.325-0.725-0.725-0.725zM6.284 22.78h-2.912c-1.060 0-1.922-0.862-1.922-1.922s0.862-1.922 1.922-1.922h2.912c0.377 0 0.745-0.071 1.088-0.208l2.566 2.979c-1.088 0.703-2.338 1.073-3.654 1.073zM11.069 20.797l-2.522-2.928c0.413-0.501 0.654-1.129 0.672-1.789l3.624 1.641c-0.305 1.162-0.918 2.224-1.774 3.076zM13.065 16c0 0.076-0.002 0.151-0.005 0.227l-3.683-1.668c0.249-1.144 0.794-2.206 1.579-3.080l2.525 3.014c-0.271 0.451-0.416 0.969-0.416 1.506zM15.455 13.114c-0.334 0.062-0.651 0.182-0.941 0.354l-2.48-2.96c1.004-0.727 2.185-1.165 3.421-1.265v3.871zM17.844 13.47c-0.29-0.172-0.606-0.292-0.939-0.355v-3.872c1.235 0.101 2.416 0.539 3.419 1.267l-2.48 2.96zM19.289 16c0-0.536-0.145-1.052-0.414-1.502l2.526-3.015c0.783 0.874 1.327 1.936 1.576 3.079l-3.683 1.668c-0.003-0.076-0.005-0.153-0.005-0.23zM19.512 17.723l3.623-1.641c0.019 0.662 0.26 1.29 0.675 1.791l-2.522 2.928c-0.857-0.853-1.471-1.914-1.776-3.078zM26.332 22.78h-0.263c-1.294 0-2.564-0.377-3.649-1.071l2.566-2.979c0.342 0.136 0.708 0.207 1.083 0.207h0.263v3.843z"></path>
<path d="M31.162 18.634c-0.059-0.067-0.121-0.132-0.185-0.194-0.287-0.279-0.746-0.273-1.025 0.015s-0.273 0.746 0.015 1.025c0.037 0.036 0.073 0.073 0.107 0.112 0.143 0.163 0.343 0.246 0.545 0.246 0.17 0 0.341-0.059 0.479-0.181 0.301-0.264 0.33-0.723 0.066-1.023z"></path>
<path d="M4.408 19.819c-0.401 0-0.725 0.325-0.725 0.725v0.677c0 0.4 0.325 0.725 0.725 0.725s0.725-0.325 0.725-0.725v-0.677c-0-0.401-0.325-0.725-0.725-0.725z"></path>
</svg>
