<svg aria-hidden="true" style="position: absolute; width: 0; height: 0; overflow: hidden;" version="1.1" xmlns="http://www.w3.org/2000/svg" xmlns:xlink="http://www.w3.org/1999/xlink">
<defs>
<symbol id="icon-folder-download" viewBox="0 0 32 32">
<path d="M18 8l-4-4h-14v26h32v-22h-14zM16 27l-7-7h5v-8h4v8h5l-7 7z"></path>
</symbol>
<symbol id="icon-phone" viewBox="0 0 32 32">
<path d="M22 20c-2 2-2 4-4 4s-4-2-6-4-4-4-4-6 2-2 4-4-4-8-6-8-6 6-6 6c0 4 4.109 12.109 8 16s12 8 16 8c0 0 6-4 6-6s-6-8-8-6z"></path>
</symbol>
<symbol id="icon-envelop" viewBox="0 0 32 32">
<path d="M29 4h-26c-1.65 0-3 1.35-3 3v20c0 1.65 1.35 3 3 3h26c1.65 0 3-1.35 3-3v-20c0-1.65-1.35-3-3-3zM12.461 17.199l-8.461 6.59v-15.676l8.461 9.086zM5.512 8h20.976l-10.488 7.875-10.488-7.875zM12.79 17.553l3.21 3.447 3.21-3.447 6.58 8.447h-19.579l6.58-8.447zM19.539 17.199l8.461-9.086v15.676l-8.461-6.59z"></path>
</symbol>
<symbol id="worm" viewBox="0 0 32 32">
<path d="M31.275 20.133c-0.4 0-0.725 0.325-0.725 0.725 0 1.060-0.862 1.922-1.922 1.922h-0.845v-3.843h0.845c0.4 0 0.725-0.325 0.725-0.725s-0.325-0.725-0.725-0.725h-2.559c-0.294 0-0.577-0.087-0.821-0.249-0.002-0.001-0.004-0.003-0.006-0.005-0.011-0.008-0.022-0.015-0.033-0.022-0.393-0.28-0.627-0.731-0.627-1.211 0-0.345-0.023-0.692-0.066-1.033-0.002-0.051-0.009-0.103-0.021-0.154-0.273-1.881-1.198-3.617-2.614-4.902-0.027-0.029-0.056-0.056-0.089-0.081-0-0-0-0-0-0-1.505-1.329-3.434-2.060-5.44-2.060h-0.35c-2.024 0-3.971 0.745-5.482 2.097-1.463 1.307-2.413 3.091-2.674 5.024-0 0.001-0 0.002-0 0.003-0 0.004-0.001 0.008-0.001 0.012-0.048 0.361-0.073 0.729-0.073 1.095 0 0.486-0.24 0.943-0.64 1.222-0.249 0.173-0.541 0.265-0.846 0.265h-2.912c-1.859-0-3.372 1.512-3.372 3.372s1.513 3.372 3.372 3.372h2.912c1.878 0 3.716-0.652 5.175-1.835 0-0 0.001-0.001 0.001-0.001 0.003-0.002 0.006-0.005 0.009-0.008 1.533-1.246 2.567-2.993 2.914-4.923 0-0.001 0-0.002 0.001-0.003 0.002-0.010 0.004-0.021 0.006-0.031 0.002-0.011 0.003-0.023 0.005-0.035 0-0.001 0-0.002 0.001-0.003 0.078-0.455 0.118-0.922 0.118-1.391 0-0.385 0.147-0.75 0.414-1.029 0.284-0.295 0.664-0.458 1.072-0.458h0.35c0.409 0 0.79 0.163 1.074 0.46 0.266 0.278 0.413 0.643 0.413 1.027 0 0.479 0.042 0.959 0.125 1.428 0.342 1.95 1.384 3.715 2.934 4.97 1.459 1.182 3.296 1.832 5.171 1.832h2.559c1.859 0 3.372-1.513 3.372-3.372-0-0.401-0.325-0.725-0.725-0.725zM6.284 22.78h-2.912c-1.060 0-1.922-0.862-1.922-1.922s0.862-1.922 1.922-1.922h2.912c0.377 0 0.745-0.071 1.088-0.208l2.566 2.979c-1.088 0.703-2.338 1.073-3.654 1.073zM11.069 20.797l-2.522-2.928c0.413-0.501 0.654-1.129 0.672-1.789l3.624 1.641c-0.305 1.162-0.918 2.224-1.774 3.076zM13.065 16c0 0.076-0.002 0.151-0.005 0.227l-3.683-1.668c0.249-1.144 0.794-2.206 1.579-3.080l2.525 3.014c-0.271 0.451-0.416 0.969-0.416 1.506zM15.455 13.114c-0.334 0.062-0.651 0.182-0.941 0.354l-2.48-2.96c1.004-0.727 2.185-1.165 3.421-1.265v3.871zM17.844 13.47c-0.29-0.172-0.606-0.292-0.939-0.355v-3.872c1.235 0.101 2.416 0.539 3.419 1.267l-2.48 2.96zM19.289 16c0-0.536-0.145-1.052-0.414-1.502l2.526-3.015c0.783 0.874 1.327 1.936 1.576 3.079l-3.683 1.668c-0.003-0.076-0.005-0.153-0.005-0.23zM19.512 17.723l3.623-1.641c0.019 0.662 0.26 1.29 0.675 1.791l-2.522 2.928c-0.857-0.853-1.471-1.914-1.776-3.078zM26.332 22.78h-0.263c-1.294 0-2.564-0.377-3.649-1.071l2.566-2.979c0.342 0.136 0.708 0.207 1.083 0.207h0.263v3.843z"></path>
<path d="M31.162 18.634c-0.059-0.067-0.121-0.132-0.185-0.194-0.287-0.279-0.746-0.273-1.025 0.015s-0.273 0.746 0.015 1.025c0.037 0.036 0.073 0.073 0.107 0.112 0.143 0.163 0.343 0.246 0.545 0.246 0.17 0 0.341-0.059 0.479-0.181 0.301-0.264 0.33-0.723 0.066-1.023z"></path>
<path d="M4.408 19.819c-0.401 0-0.725 0.325-0.725 0.725v0.677c0 0.4 0.325 0.725 0.725 0.725s0.725-0.325 0.725-0.725v-0.677c-0-0.401-0.325-0.725-0.725-0.725z"></path>
</symbol>
<symbol id="icon-Screenshot_3" viewBox="0 0 52 32">
<path d="M0 16v16h52.174v-32h-52.174v16zM17.739 7.861c1.739 1.322 0.974 4.452-1.252 4.8-1.461 0.209-1.53 0.557-1.739 6.261l-0.209 6.122h-4.8v-6.191c0-5.913-0.070-6.261-1.53-6.47-1.6-0.209-2.435-2.435-1.67-4.452 0.487-1.322 9.391-1.391 11.2-0.070zM29.774 8.070c1.878 1.322 3.061 3.965 2.504 5.496-0.557 1.391-3.757 1.322-4.8-0.139-1.53-2.087-3.13-0.626-3.13 2.922s1.6 5.009 3.13 2.922c0.974-1.391 4.452-1.6 4.591-0.348 0.417 4.313-1.739 6.47-6.122 6.4-2.574-0.070-3.548-0.417-4.87-1.948-1.391-1.6-1.6-2.643-1.6-7.235 0.070-3.13 0.417-5.843 0.904-6.47 2.157-2.783 6.609-3.548 9.391-1.6zM38.748 7.513c0.417 0.278 0.904 1.739 1.043 3.2 0.278 3.757 1.948 4.243 1.948 0.557 0-3.27 1.322-4.661 3.826-4.035l1.809 0.487-0.417 16.974h-2.435c-2.365 0-2.435-0.070-2.643-2.991-0.139-1.948-0.557-2.922-1.183-2.922s-1.043 0.974-1.183 2.922c-0.209 2.922-0.278 2.991-2.643 2.991h-2.435l-0.209-7.93c-0.209-8.070 0.278-9.809 2.574-9.809 0.626 0 1.461 0.278 1.948 0.557z"></path>
<path d="M7.026 9.878c0.070 1.183 0.209 1.252 0.417 0.417 0.209-0.974 1.322-1.252 5.287-1.461l5.009-0.209-5.357-0.139c-5.217-0.139-5.426-0.070-5.357 1.391z"></path>
<path d="M16.696 10.783c-0.765 0.904-0.696 0.974 0.278 0.626 0.626-0.209 1.113-0.696 1.113-1.043 0-0.904-0.417-0.765-1.391 0.417z"></path>
<path d="M10.296 17.739c0.209 6.4 0.278 6.609 1.878 6.609s1.67-0.209 1.878-6.609c0.139-3.617 0-6.609-0.278-6.609-0.348 0-0.557 2.783-0.557 6.261 0 5.078-0.209 6.261-1.043 6.261s-1.043-1.183-1.043-6.261c0-3.478-0.209-6.261-0.487-6.261-0.348 0-0.487 2.991-0.348 6.609z"></path>
<path d="M26.783 8.417c2.852 1.113 3.826 1.948 3.826 3.478 0 1.67-0.835 1.67-2.435-0.070-1.53-1.67-2.643-1.739-4.104-0.278-1.322 1.322-1.53 7.93-0.278 9.183 1.183 1.183 3.965 1.043 4.452-0.209 0.557-1.461 2.226-1.322 2.574 0.139 0.278 0.974 0.348 0.835 0.417-0.348 0.070-1.809-2.296-2.157-3.27-0.417-0.348 0.626-1.252 0.974-2.296 0.835-1.53-0.209-1.67-0.487-1.67-4.313 0-3.2 0.278-4.243 1.252-4.87 1.043-0.626 1.53-0.487 2.574 0.765 1.67 2.087 3.478 2.087 3.478 0s-1.809-3.757-4.522-4.243l-2.087-0.417 2.087 0.765z"></path>
<path d="M21.983 9.461c-1.67 1.67-1.322 2.087 0.487 0.557 0.835-0.696 1.67-1.391 1.809-1.461 0.139-0.139-0.070-0.209-0.487-0.209s-1.252 0.487-1.809 1.113z"></path>
<path d="M20.313 16.070c-0.139 3.548 0.139 4.939 1.113 5.983 0.626 0.696 0.904 0.835 0.487 0.278-0.348-0.487-0.904-3.2-1.113-5.913l-0.417-4.939-0.070 4.591z"></path>
<path d="M34.783 16.348v8h2.087c2.017 0 2.087-0.139 2.087-3.13 0-2.852 0.139-3.13 1.67-3.13 0.904 0 1.878 0.417 2.017 0.835 0.209 0.557 0.417 0.417 0.417-0.348 0.070-0.904-0.487-1.183-2.365-1.183-2.435 0-2.435 0-2.435 3.13 0 2.713-0.209 3.13-1.461 3.13-1.322 0-1.391-0.348-1.183-7.652 0.139-4.243 0-7.652-0.278-7.652-0.348 0-0.557 3.617-0.557 8z"></path>
<path d="M37.357 8.904c0.417 0.278 0.904 1.739 1.113 3.27 0.278 2.783 0.278 2.783 0.348-0.557 0.139-2.713-0.070-3.27-1.043-3.27-0.835 0-0.974 0.209-0.417 0.557z"></path>
<path d="M44.035 8.835l1.878 0.278v7.235c0 6.887-0.070 7.235-1.53 7.513-1.391 0.278-1.322 0.278 0.348 0.417l1.878 0.070v-16l-2.226 0.070c-2.157 0.139-2.157 0.139-0.348 0.417z"></path>
</symbol>
<symbol id="icon-instagram" viewBox="0 0 32 32">
<path d="M16 2.881c4.275 0 4.781 0.019 6.462 0.094 1.563 0.069 2.406 0.331 2.969 0.55 0.744 0.288 1.281 0.638 1.837 1.194 0.563 0.563 0.906 1.094 1.2 1.838 0.219 0.563 0.481 1.412 0.55 2.969 0.075 1.688 0.094 2.194 0.094 6.463s-0.019 4.781-0.094 6.463c-0.069 1.563-0.331 2.406-0.55 2.969-0.288 0.744-0.637 1.281-1.194 1.837-0.563 0.563-1.094 0.906-1.837 1.2-0.563 0.219-1.413 0.481-2.969 0.55-1.688 0.075-2.194 0.094-6.463 0.094s-4.781-0.019-6.463-0.094c-1.563-0.069-2.406-0.331-2.969-0.55-0.744-0.288-1.281-0.637-1.838-1.194-0.563-0.563-0.906-1.094-1.2-1.837-0.219-0.563-0.481-1.413-0.55-2.969-0.075-1.688-0.094-2.194-0.094-6.463s0.019-4.781 0.094-6.463c0.069-1.563 0.331-2.406 0.55-2.969 0.288-0.744 0.638-1.281 1.194-1.838 0.563-0.563 1.094-0.906 1.838-1.2 0.563-0.219 1.412-0.481 2.969-0.55 1.681-0.075 2.188-0.094 6.463-0.094zM16 0c-4.344 0-4.887 0.019-6.594 0.094-1.7 0.075-2.869 0.35-3.881 0.744-1.056 0.412-1.95 0.956-2.837 1.85-0.894 0.888-1.438 1.781-1.85 2.831-0.394 1.019-0.669 2.181-0.744 3.881-0.075 1.713-0.094 2.256-0.094 6.6s0.019 4.887 0.094 6.594c0.075 1.7 0.35 2.869 0.744 3.881 0.413 1.056 0.956 1.95 1.85 2.837 0.887 0.887 1.781 1.438 2.831 1.844 1.019 0.394 2.181 0.669 3.881 0.744 1.706 0.075 2.25 0.094 6.594 0.094s4.888-0.019 6.594-0.094c1.7-0.075 2.869-0.35 3.881-0.744 1.050-0.406 1.944-0.956 2.831-1.844s1.438-1.781 1.844-2.831c0.394-1.019 0.669-2.181 0.744-3.881 0.075-1.706 0.094-2.25 0.094-6.594s-0.019-4.887-0.094-6.594c-0.075-1.7-0.35-2.869-0.744-3.881-0.394-1.063-0.938-1.956-1.831-2.844-0.887-0.887-1.781-1.438-2.831-1.844-1.019-0.394-2.181-0.669-3.881-0.744-1.712-0.081-2.256-0.1-6.6-0.1v0z"></path>
<path d="M16 7.781c-4.537 0-8.219 3.681-8.219 8.219s3.681 8.219 8.219 8.219 8.219-3.681 8.219-8.219c0-4.537-3.681-8.219-8.219-8.219zM16 21.331c-2.944 0-5.331-2.387-5.331-5.331s2.387-5.331 5.331-5.331c2.944 0 5.331 2.387 5.331 5.331s-2.387 5.331-5.331 5.331z"></path>
<path d="M26.462 7.456c0 1.060-0.859 1.919-1.919 1.919s-1.919-0.859-1.919-1.919c0-1.060 0.859-1.919 1.919-1.919s1.919 0.859 1.919 1.919z"></path>
</symbol>
</defs>
</svg>
