<svg aria-hidden="true" style="position: absolute; width: 0; height: 0; overflow: hidden;" version="1.1" xmlns="http://www.w3.org/2000/svg" xmlns:xlink="http://www.w3.org/1999/xlink">
<defs>

<symbol id="icon-close" viewBox="0 0 32 32">
<path d="M31.708 25.708c-0-0-0-0-0-0l-9.708-9.708 9.708-9.708c0-0 0-0 0-0 0.105-0.105 0.18-0.227 0.229-0.357 0.133-0.356 0.057-0.771-0.229-1.057l-4.586-4.586c-0.286-0.286-0.702-0.361-1.057-0.229-0.13 0.048-0.252 0.124-0.357 0.228 0 0-0 0-0 0l-9.708 9.708-9.708-9.708c-0-0-0-0-0-0-0.105-0.104-0.227-0.18-0.357-0.228-0.356-0.133-0.771-0.057-1.057 0.229l-4.586 4.586c-0.286 0.286-0.361 0.702-0.229 1.057 0.049 0.13 0.124 0.252 0.229 0.357 0 0 0 0 0 0l9.708 9.708-9.708 9.708c-0 0-0 0-0 0-0.104 0.105-0.18 0.227-0.229 0.357-0.133 0.355-0.057 0.771 0.229 1.057l4.586 4.586c0.286 0.286 0.702 0.361 1.057 0.229 0.13-0.049 0.252-0.124 0.357-0.229 0-0 0-0 0-0l9.708-9.708 9.708 9.708c0 0 0 0 0 0 0.105 0.105 0.227 0.18 0.357 0.229 0.356 0.133 0.771 0.057 1.057-0.229l4.586-4.586c0.286-0.286 0.362-0.702 0.229-1.057-0.049-0.13-0.124-0.252-0.229-0.357z"></path>
</symbol>

<symbol id="icon-user" viewBox="0 0 32 32">
<path d="M18 22.082v-1.649c2.203-1.241 4-4.337 4-7.432 0-4.971 0-9-6-9s-6 4.029-6 9c0 3.096 1.797 6.191 4 7.432v1.649c-6.784 0.555-12 3.888-12 7.918h28c0-4.030-5.216-7.364-12-7.918z"></path>
</symbol>

<symbol id="icon-download" viewBox="0 0 32 32">
<path d="M18 8l-4-4h-14v26h32v-22h-14zM16 27l-7-7h5v-8h4v8h5l-7 7z"></path>
</symbol>

<symbol id="icon-phone" viewBox="0 0 32 32">
<path d="M22 20c-2 2-2 4-4 4s-4-2-6-4-4-4-4-6 2-2 4-4-4-8-6-8-6 6-6 6c0 4 4.109 12.109 8 16s12 8 16 8c0 0 6-4 6-6s-6-8-8-6z"></path>
</symbol>

<symbol id="icon-coment" viewBox="0 0 36 32">
<path d="M15 0v0c8.284 0 15 5.435 15 12.139s-6.716 12.139-15 12.139c-0.796 0-1.576-0.051-2.339-0.147-3.222 3.209-6.943 3.785-10.661 3.869v-0.785c2.008-0.98 3.625-2.765 3.625-4.804 0-0.285-0.022-0.564-0.063-0.837-3.392-2.225-5.562-5.625-5.562-9.434 0-6.704 6.716-12.139 15-12.139zM31.125 27.209c0 1.748 1.135 3.278 2.875 4.118v0.673c-3.223-0.072-6.181-0.566-8.973-3.316-0.661 0.083-1.337 0.126-2.027 0.126-2.983 0-5.732-0.805-7.925-2.157 4.521-0.016 8.789-1.464 12.026-4.084 1.631-1.32 2.919-2.87 3.825-4.605 0.961-1.84 1.449-3.799 1.449-5.825 0-0.326-0.014-0.651-0.039-0.974 2.268 1.873 3.664 4.426 3.664 7.24 0 3.265-1.88 6.179-4.82 8.086-0.036 0.234-0.055 0.474-0.055 0.718z"></path>
</symbol>

<symbol id="icon-envelop" viewBox="0 0 32 32">
<path d="M29 4h-26c-1.65 0-3 1.35-3 3v20c0 1.65 1.35 3 3 3h26c1.65 0 3-1.35 3-3v-20c0-1.65-1.35-3-3-3zM12.461 17.199l-8.461 6.59v-15.676l8.461 9.086zM5.512 8h20.976l-10.488 7.875-10.488-7.875zM12.79 17.553l3.21 3.447 3.21-3.447 6.58 8.447h-19.579l6.58-8.447zM19.539 17.199l8.461-9.086v15.676l-8.461-6.59z"></path>
</symbol>

<symbol id="icon-checkmark" viewBox="0 0 32 32">
<path d="M27 4l-15 15-7-7-5 5 12 12 20-20z"></path>
</symbol>
<symbol id="icon-clean" viewBox="0 0 32 32">
<path d="M27.802 5.197c-2.925-3.194-7.13-5.197-11.803-5.197-8.837 0-16 7.163-16 16h3c0-7.18 5.82-13 13-13 3.844 0 7.298 1.669 9.678 4.322l-4.678 4.678h11v-11l-4.198 4.197z"></path>
<path d="M29 16c0 7.18-5.82 13-13 13-3.844 0-7.298-1.669-9.678-4.322l4.678-4.678h-11v11l4.197-4.197c2.925 3.194 7.13 5.197 11.803 5.197 8.837 0 16-7.163 16-16h-3z"></path>
</symbol>


<symbol id="worm" viewBox="0 0 32 32">
<path d="M31.275 20.133c-0.4 0-0.725 0.325-0.725 0.725 0 1.060-0.862 1.922-1.922 1.922h-0.845v-3.843h0.845c0.4 0 0.725-0.325 0.725-0.725s-0.325-0.725-0.725-0.725h-2.559c-0.294 0-0.577-0.087-0.821-0.249-0.002-0.001-0.004-0.003-0.006-0.005-0.011-0.008-0.022-0.015-0.033-0.022-0.393-0.28-0.627-0.731-0.627-1.211 0-0.345-0.023-0.692-0.066-1.033-0.002-0.051-0.009-0.103-0.021-0.154-0.273-1.881-1.198-3.617-2.614-4.902-0.027-0.029-0.056-0.056-0.089-0.081-0-0-0-0-0-0-1.505-1.329-3.434-2.060-5.44-2.060h-0.35c-2.024 0-3.971 0.745-5.482 2.097-1.463 1.307-2.413 3.091-2.674 5.024-0 0.001-0 0.002-0 0.003-0 0.004-0.001 0.008-0.001 0.012-0.048 0.361-0.073 0.729-0.073 1.095 0 0.486-0.24 0.943-0.64 1.222-0.249 0.173-0.541 0.265-0.846 0.265h-2.912c-1.859-0-3.372 1.512-3.372 3.372s1.513 3.372 3.372 3.372h2.912c1.878 0 3.716-0.652 5.175-1.835 0-0 0.001-0.001 0.001-0.001 0.003-0.002 0.006-0.005 0.009-0.008 1.533-1.246 2.567-2.993 2.914-4.923 0-0.001 0-0.002 0.001-0.003 0.002-0.010 0.004-0.021 0.006-0.031 0.002-0.011 0.003-0.023 0.005-0.035 0-0.001 0-0.002 0.001-0.003 0.078-0.455 0.118-0.922 0.118-1.391 0-0.385 0.147-0.75 0.414-1.029 0.284-0.295 0.664-0.458 1.072-0.458h0.35c0.409 0 0.79 0.163 1.074 0.46 0.266 0.278 0.413 0.643 0.413 1.027 0 0.479 0.042 0.959 0.125 1.428 0.342 1.95 1.384 3.715 2.934 4.97 1.459 1.182 3.296 1.832 5.171 1.832h2.559c1.859 0 3.372-1.513 3.372-3.372-0-0.401-0.325-0.725-0.725-0.725zM6.284 22.78h-2.912c-1.060 0-1.922-0.862-1.922-1.922s0.862-1.922 1.922-1.922h2.912c0.377 0 0.745-0.071 1.088-0.208l2.566 2.979c-1.088 0.703-2.338 1.073-3.654 1.073zM11.069 20.797l-2.522-2.928c0.413-0.501 0.654-1.129 0.672-1.789l3.624 1.641c-0.305 1.162-0.918 2.224-1.774 3.076zM13.065 16c0 0.076-0.002 0.151-0.005 0.227l-3.683-1.668c0.249-1.144 0.794-2.206 1.579-3.080l2.525 3.014c-0.271 0.451-0.416 0.969-0.416 1.506zM15.455 13.114c-0.334 0.062-0.651 0.182-0.941 0.354l-2.48-2.96c1.004-0.727 2.185-1.165 3.421-1.265v3.871zM17.844 13.47c-0.29-0.172-0.606-0.292-0.939-0.355v-3.872c1.235 0.101 2.416 0.539 3.419 1.267l-2.48 2.96zM19.289 16c0-0.536-0.145-1.052-0.414-1.502l2.526-3.015c0.783 0.874 1.327 1.936 1.576 3.079l-3.683 1.668c-0.003-0.076-0.005-0.153-0.005-0.23zM19.512 17.723l3.623-1.641c0.019 0.662 0.26 1.29 0.675 1.791l-2.522 2.928c-0.857-0.853-1.471-1.914-1.776-3.078zM26.332 22.78h-0.263c-1.294 0-2.564-0.377-3.649-1.071l2.566-2.979c0.342 0.136 0.708 0.207 1.083 0.207h0.263v3.843z"></path>
<path d="M31.162 18.634c-0.059-0.067-0.121-0.132-0.185-0.194-0.287-0.279-0.746-0.273-1.025 0.015s-0.273 0.746 0.015 1.025c0.037 0.036 0.073 0.073 0.107 0.112 0.143 0.163 0.343 0.246 0.545 0.246 0.17 0 0.341-0.059 0.479-0.181 0.301-0.264 0.33-0.723 0.066-1.023z"></path>
<path d="M4.408 19.819c-0.401 0-0.725 0.325-0.725 0.725v0.677c0 0.4 0.325 0.725 0.725 0.725s0.725-0.325 0.725-0.725v-0.677c-0-0.401-0.325-0.725-0.725-0.725z"></path>
</symbol>

<symbol id="icon-instagram" viewBox="0 0 32 32">
<path d="M16 2.881c4.275 0 4.781 0.019 6.462 0.094 1.563 0.069 2.406 0.331 2.969 0.55 0.744 0.288 1.281 0.638 1.837 1.194 0.563 0.563 0.906 1.094 1.2 1.838 0.219 0.563 0.481 1.412 0.55 2.969 0.075 1.688 0.094 2.194 0.094 6.463s-0.019 4.781-0.094 6.463c-0.069 1.563-0.331 2.406-0.55 2.969-0.288 0.744-0.637 1.281-1.194 1.837-0.563 0.563-1.094 0.906-1.837 1.2-0.563 0.219-1.413 0.481-2.969 0.55-1.688 0.075-2.194 0.094-6.463 0.094s-4.781-0.019-6.463-0.094c-1.563-0.069-2.406-0.331-2.969-0.55-0.744-0.288-1.281-0.637-1.838-1.194-0.563-0.563-0.906-1.094-1.2-1.837-0.219-0.563-0.481-1.413-0.55-2.969-0.075-1.688-0.094-2.194-0.094-6.463s0.019-4.781 0.094-6.463c0.069-1.563 0.331-2.406 0.55-2.969 0.288-0.744 0.638-1.281 1.194-1.838 0.563-0.563 1.094-0.906 1.838-1.2 0.563-0.219 1.412-0.481 2.969-0.55 1.681-0.075 2.188-0.094 6.463-0.094zM16 0c-4.344 0-4.887 0.019-6.594 0.094-1.7 0.075-2.869 0.35-3.881 0.744-1.056 0.412-1.95 0.956-2.837 1.85-0.894 0.888-1.438 1.781-1.85 2.831-0.394 1.019-0.669 2.181-0.744 3.881-0.075 1.713-0.094 2.256-0.094 6.6s0.019 4.887 0.094 6.594c0.075 1.7 0.35 2.869 0.744 3.881 0.413 1.056 0.956 1.95 1.85 2.837 0.887 0.887 1.781 1.438 2.831 1.844 1.019 0.394 2.181 0.669 3.881 0.744 1.706 0.075 2.25 0.094 6.594 0.094s4.888-0.019 6.594-0.094c1.7-0.075 2.869-0.35 3.881-0.744 1.050-0.406 1.944-0.956 2.831-1.844s1.438-1.781 1.844-2.831c0.394-1.019 0.669-2.181 0.744-3.881 0.075-1.706 0.094-2.25 0.094-6.594s-0.019-4.887-0.094-6.594c-0.075-1.7-0.35-2.869-0.744-3.881-0.394-1.063-0.938-1.956-1.831-2.844-0.887-0.887-1.781-1.438-2.831-1.844-1.019-0.394-2.181-0.669-3.881-0.744-1.712-0.081-2.256-0.1-6.6-0.1v0z"></path>
<path d="M16 7.781c-4.537 0-8.219 3.681-8.219 8.219s3.681 8.219 8.219 8.219 8.219-3.681 8.219-8.219c0-4.537-3.681-8.219-8.219-8.219zM16 21.331c-2.944 0-5.331-2.387-5.331-5.331s2.387-5.331 5.331-5.331c2.944 0 5.331 2.387 5.331 5.331s-2.387 5.331-5.331 5.331z"></path>
<path d="M26.462 7.456c0 1.060-0.859 1.919-1.919 1.919s-1.919-0.859-1.919-1.919c0-1.060 0.859-1.919 1.919-1.919s1.919 0.859 1.919 1.919z"></path>
</symbol>

<symbol id="icon-twitter" viewBox="0 0 32 32">
<path d="M32 7.075c-1.175 0.525-2.444 0.875-3.769 1.031 1.356-0.813 2.394-2.1 2.887-3.631-1.269 0.75-2.675 1.3-4.169 1.594-1.2-1.275-2.906-2.069-4.794-2.069-3.625 0-6.563 2.938-6.563 6.563 0 0.512 0.056 1.012 0.169 1.494-5.456-0.275-10.294-2.888-13.531-6.862-0.563 0.969-0.887 2.1-0.887 3.3 0 2.275 1.156 4.287 2.919 5.463-1.075-0.031-2.087-0.331-2.975-0.819 0 0.025 0 0.056 0 0.081 0 3.181 2.263 5.838 5.269 6.437-0.55 0.15-1.131 0.231-1.731 0.231-0.425 0-0.831-0.044-1.237-0.119 0.838 2.606 3.263 4.506 6.131 4.563-2.25 1.762-5.075 2.813-8.156 2.813-0.531 0-1.050-0.031-1.569-0.094 2.913 1.869 6.362 2.95 10.069 2.95 12.075 0 18.681-10.006 18.681-18.681 0-0.287-0.006-0.569-0.019-0.85 1.281-0.919 2.394-2.075 3.275-3.394z"></path>
</symbol>
</defs>
</svg>
